<?xml version="1.0" encoding="utf-8"?>
<!-- Generator: Adobe Illustrator 17.1.0, SVG Export Plug-In . SVG Version: 6.00 Build 0)  -->
<!DOCTYPE svg PUBLIC "-//W3C//DTD SVG 1.1//EN" "http://www.w3.org/Graphics/SVG/1.1/DTD/svg11.dtd">
<svg version="1.1" id="Layer_1" xmlns="http://www.w3.org/2000/svg" xmlns:xlink="http://www.w3.org/1999/xlink" x="0px" y="0px"
	 viewBox="0 0 241.2 58.2" enable-background="new 0 0 241.2 58.2" xml:space="preserve">
<g>
	<path fill="none" d="M24.4,22.7V27h5.2c1.4,0,2.5-0.7,2.5-2.1c0-1.5-1.1-2.2-2.5-2.2H24.4z"/>
	<path fill="none" d="M73.7,22.7V27h5.2c1.4,0,2.5-0.7,2.5-2.1c0-1.5-1.1-2.2-2.5-2.2H73.7z"/>
	<path fill="#FFFFFF" d="M16.1,15.5v27.3h8.3v-8.6h6.3c6.4,0,9.8-4.3,9.8-9.3c0-5.1-3.4-9.4-9.8-9.4H16.1z M32.2,24.8
		c0,1.4-1.1,2.1-2.5,2.1h-5.2v-4.3h5.2C31,22.7,32.2,23.4,32.2,24.8z"/>
	<path fill="#FFFFFF" d="M65.4,15.5v27.3h8.3v-8.6H80c6.4,0,9.8-4.3,9.8-9.3c0-5.1-3.4-9.4-9.8-9.4H65.4z M81.4,24.8
		c0,1.4-1.1,2.1-2.5,2.1h-5.2v-4.3h5.2C80.3,22.7,81.4,23.4,81.4,24.8z"/>
	<polygon fill="#FFFFFF" points="118.1,22.7 118.1,15.5 97.3,15.5 97.3,42.8 118.1,42.8 118.1,35.6 105.6,35.6 105.6,32.6 
		112.8,32.6 112.8,25.4 105.6,25.4 105.6,22.7 	"/>
	<polygon fill="#FFFFFF" points="125.8,15.5 125.8,42.8 144.5,42.8 144.5,35.6 134.1,35.6 134.1,15.5 	"/>
	<polygon fill="#FFFFFF" points="187.9,42.8 195.9,42.8 195.9,15.5 187.6,15.5 187.6,28.4 178.1,15.5 169.6,15.5 169.6,42.8 
		177.8,42.8 177.8,28.9 	"/>
	<polygon fill="#FFFFFF" points="225.1,22.7 225.1,15.5 204.4,15.5 204.4,42.8 225.1,42.8 225.1,35.6 212.7,35.6 212.7,32.6 
		219.8,32.6 219.8,25.4 212.7,25.4 212.7,22.7 	"/>
	<polygon fill="#FFFFFF" points="152.8,0 152.8,0 152.8,8.2 152.8,37.1 150.1,37.1 150.1,42.8 152.8,42.8 161,42.8 163.7,42.8 
		163.7,37.1 161,37.1 161,8.2 233,8.2 233,50 65.4,50 65.4,58.2 241.2,58.2 241.2,0 	"/>
	<polygon fill="#FFFFFF" points="48.8,15.5 46.1,15.5 46.1,21.1 48.8,21.1 48.8,50 8.2,50 8.2,8.2 144.5,8.2 144.5,0 0,0 0,58.2 
		57.1,58.2 57.1,58.1 57.1,50 57.1,21.1 59.8,21.1 59.8,15.5 57.1,15.5 	"/>
</g>
</svg>
